<svg width="1000" height="1000" viewBox="0 0 1000 1000" fill="none" xmlns="http://www.w3.org/2000/svg">
<circle cx="500" cy="500" r="500" fill="#F8F8F8"/>
<path d="M217.56 759.481C219.231 760.88 220.546 761.768 221.506 762.145C222.467 762.523 223.457 762.445 224.478 761.913C225.453 761.336 226.769 760.158 228.426 758.378L260.882 723.537C262.539 721.757 263.622 720.36 264.131 719.344C264.593 718.285 264.606 717.285 264.169 716.345C263.732 715.406 262.766 714.143 261.27 712.557L262.579 711.152C264.73 713.444 268.203 716.85 273 721.372C277.703 725.806 281.425 729.182 284.163 731.5L282.855 732.905C281.231 731.55 279.938 730.684 278.978 730.306C277.971 729.885 276.981 729.962 276.006 730.539C274.985 731.072 273.646 732.228 271.988 734.007L256.284 750.866L274.795 768.317L290.499 751.458C292.157 749.678 293.24 748.281 293.749 747.265C294.211 746.206 294.224 745.206 293.787 744.267C293.35 743.327 292.384 742.064 290.888 740.478L292.196 739.073C294.58 741.584 298.031 744.969 302.548 749.228C307.531 753.925 311.275 757.323 313.781 759.421L312.472 760.826C310.848 759.471 309.556 758.605 308.596 758.227C307.589 757.806 306.599 757.884 305.624 758.46C304.603 758.993 303.264 760.149 301.606 761.929L269.151 796.77C267.493 798.55 266.433 799.969 265.971 801.029C265.463 802.044 265.45 803.044 265.933 804.027C266.37 804.967 267.313 806.208 268.763 807.75L267.454 809.155C265.21 806.776 261.596 803.237 256.613 798.54C252.096 794.281 248.515 791.037 245.869 788.807L247.178 787.402C248.849 788.801 250.164 789.689 251.124 790.067C252.085 790.444 253.075 790.367 254.096 789.834C255.071 789.257 256.387 788.079 258.044 786.3L273.487 769.722L254.975 752.271L239.533 768.849C237.875 770.629 236.816 772.048 236.353 773.108C235.845 774.123 235.832 775.123 236.315 776.106C236.752 777.046 237.695 778.287 239.145 779.829L237.836 781.234C235.359 778.635 231.769 775.118 227.065 770.684C222.269 766.163 218.664 762.896 216.251 760.886L217.56 759.481Z" fill="black"/>
<path d="M252.417 694.203C254.769 697.556 255.672 700.682 255.126 703.582C254.543 706.428 252.842 708.852 250.024 710.853C247.675 712.52 245.322 713.288 242.963 713.157C240.515 713.011 238.268 712.369 236.22 711.233C234.135 710.044 231.668 708.421 228.817 706.363C225.805 704.185 223.447 702.719 221.746 701.965C219.955 701.195 218.355 701.311 216.946 702.311L210.84 706.645C208.648 708.201 207.32 709.929 206.854 711.829C206.3 713.714 206.776 715.73 208.283 717.878C210.047 720.393 212.015 721.861 214.186 722.282C213.679 720.445 213.672 718.762 214.164 717.236C214.62 715.656 215.552 714.367 216.961 713.366C218.736 712.107 220.568 711.709 222.457 712.173C224.346 712.638 225.897 713.734 227.109 715.463C228.396 717.297 228.814 719.119 228.364 720.93C227.914 722.74 226.828 724.257 225.106 725.479C223.644 726.517 222.179 727.047 220.71 727.069C219.152 727.077 217.414 726.662 215.498 725.824C213.671 725.002 211.806 723.736 209.903 722.026C207.963 720.264 206.129 718.151 204.402 715.689C202.601 713.121 201.3 710.709 200.499 708.453C199.698 706.196 199.483 703.994 199.853 701.848C200.193 699.88 201.069 698.12 202.482 696.568C203.858 694.963 205.981 693.142 208.852 691.104L230.144 675.99C231.397 675.101 232.211 674.366 232.586 673.786C232.924 673.154 232.854 672.497 232.376 671.816C231.825 671.03 230.72 670.402 229.061 669.931L229.84 668.201C233.425 669.188 236.412 671.384 238.801 674.79C240.822 677.672 241.663 680.096 241.323 682.064C240.984 684.032 239.867 685.727 237.972 687.15C244.037 686.77 248.852 689.12 252.417 694.203ZM243.162 691.707C241.729 689.664 239.409 688.642 236.204 688.641L220.156 700.033C221.641 699.921 223.726 700.442 226.412 701.596C229.15 702.713 231.539 703.333 233.578 703.455C235.618 703.576 237.864 702.767 240.317 701.026C242.457 699.507 243.736 697.932 244.155 696.3C244.522 694.705 244.191 693.174 243.162 691.707Z" fill="black"/>
<path d="M168.418 651.637C166.366 647.227 166.01 643.504 167.351 640.468C167.992 638.963 169.086 637.599 170.634 636.375C172.182 635.15 174.433 633.843 177.386 632.452L200.749 621.45C203.123 620.332 204.584 619.149 205.132 617.9C205.596 616.621 205.355 614.966 204.41 612.935L206.234 612.076C208.702 617.988 210.369 621.872 211.233 623.729C212.043 625.47 213.913 629.187 216.845 634.88L215.021 635.739C214.211 633.998 213.21 632.984 212.017 632.697C210.767 632.437 208.955 632.866 206.581 633.984L179.57 646.704C177.196 647.822 175.59 649.073 174.752 650.458C173.887 651.785 173.927 653.464 174.872 655.495C175.98 657.874 177.909 659.441 180.66 660.197C183.354 660.98 186.12 660.703 188.957 659.367L213.102 647.997C215.475 646.879 216.964 645.754 217.566 644.621C218.111 643.516 217.978 642.093 217.168 640.352L218.992 639.493C221.244 644.941 222.802 648.593 223.666 650.45C224.476 652.19 226.455 656.14 229.603 662.297L227.779 663.156C226.807 661.067 225.698 659.821 224.451 659.418C223.147 659.042 221.308 659.413 218.934 660.531L191.575 673.414C188.912 674.668 187.161 675.988 186.323 677.373C185.485 678.758 185.553 680.495 186.525 682.584L184.701 683.443C184.01 681.504 183.26 679.664 182.45 677.924C180.047 672.759 177.671 668.714 175.321 665.789L183.138 662.108C176.538 662.032 171.632 658.542 168.418 651.637Z" fill="black"/>
<path d="M150.901 601.842C150.259 599.496 149.976 597.25 150.053 595.104C150.067 592.975 150.301 591.283 150.754 590.029C151.017 589.292 151.081 588.677 150.946 588.183C150.794 587.627 150.39 587.241 149.733 587.024C148.998 586.763 148.059 586.724 146.915 586.908L146.383 584.964C149.596 584.34 155.058 582.96 162.768 580.826L163.3 582.77C159.381 584.453 156.326 586.627 154.136 589.292C151.867 591.912 151.222 595.013 152.202 598.593C152.708 600.445 153.655 601.843 155.041 602.788C156.411 603.67 158.02 603.855 159.871 603.343C161.968 602.762 163.593 601.549 164.747 599.702C165.839 597.872 167.05 595.146 168.381 591.523L169.59 588.3C171.397 583.749 173.166 580.271 174.896 577.866C176.627 575.461 179.158 573.797 182.488 572.875C185.202 572.124 187.827 572.26 190.364 573.285C192.883 574.247 195.061 575.902 196.897 578.249C198.734 580.596 200.091 583.375 200.969 586.585C201.898 589.98 202.044 593.061 201.408 595.827C200.961 598.076 200.702 599.675 200.63 600.624C200.614 601.293 200.982 601.789 201.734 602.112C202.407 602.39 203.363 602.491 204.603 602.413L205.135 604.358C201.552 605.084 195.35 606.668 186.53 609.11L185.998 607.166C197.009 602.789 201.543 597.051 199.601 589.952C199.111 588.162 198.173 586.794 196.787 585.85C195.322 584.861 193.48 584.674 191.259 585.289C189.532 585.767 188.1 586.595 186.962 587.773C185.808 588.89 184.867 590.18 184.14 591.643C183.412 593.106 182.444 595.267 181.235 598.125C179.775 601.518 178.569 604.143 177.617 606C176.648 607.795 175.383 609.474 173.819 611.036C172.239 612.536 170.308 613.602 168.026 614.234C164.078 615.327 160.541 614.646 157.415 612.191C154.288 609.736 152.117 606.287 150.901 601.842Z" fill="black"/>
<path d="M122.018 484.786L186.425 516.477L186.25 506.495C186.162 501.503 184.421 497.118 181.026 493.337C177.63 489.493 172.309 487.251 165.065 486.612L165.026 484.405C167.205 484.558 170.023 484.604 173.478 484.542C179.365 484.438 184.224 484.127 188.056 483.611C187.947 488.349 187.991 496.318 188.188 507.516C188.397 519.418 188.645 528.023 188.93 533.331L187.01 533.365L122.602 501.578L122.784 511.944C122.876 517.192 124.456 521.484 127.523 524.822C130.589 528.096 135.681 530.086 142.798 530.791L142.837 532.999C140.978 532.84 138.545 532.787 135.537 532.841C131.25 532.917 126.39 533.228 120.959 533.772C121.077 529.546 121.046 522.345 120.867 512.171C120.646 499.564 120.39 490.448 120.099 484.82L122.018 484.786Z" fill="black"/>
<path d="M117.225 452.491C117.569 449.825 118.506 447.818 120.036 446.469C121.51 445.048 123.39 444.487 125.674 444.786C127.959 445.085 129.665 446.115 130.792 447.876C131.865 449.565 132.229 451.743 131.884 454.408C131.54 457.074 130.63 459.118 129.156 460.538C127.626 461.887 125.719 462.413 123.435 462.114C121.15 461.815 119.472 460.821 118.399 459.132C117.272 457.37 116.88 455.157 117.225 452.491ZM183.104 453.556C185.706 453.896 187.572 453.688 188.702 452.933C189.777 452.105 190.458 450.581 190.745 448.359L192.744 448.62C191.67 454.934 190.997 459.139 190.727 461.233C190.472 463.201 190.029 467.629 189.397 474.517L187.398 474.256C187.693 471.971 187.422 470.322 186.585 469.308C185.685 468.287 183.934 467.606 181.332 467.266L151.347 463.344C148.428 462.962 146.245 463.129 144.797 463.843C143.35 464.557 142.478 466.057 142.183 468.342L140.184 468.08C140.637 466.074 140.986 464.119 141.233 462.215C141.963 456.566 142.117 451.874 141.696 448.14L183.104 453.556Z" fill="black"/>
<path d="M207.268 365.227C209.758 366.055 211.628 366.205 212.88 365.677C214.09 365.068 215.045 363.7 215.745 361.572L217.658 362.208C215.416 368.207 213.976 372.18 213.337 374.125C212.777 375.828 211.66 379.638 209.984 385.556L208.071 384.919C208.611 383.278 208.525 382.001 207.814 381.09C207.123 380.119 205.502 379.208 202.951 378.36L174.621 368.937C172.071 368.089 170.058 367.858 168.584 368.244C167.069 368.55 165.962 369.767 165.262 371.895C164.523 374.144 164.815 376.433 166.138 378.762C167.481 381.03 169.469 382.77 172.102 383.983L173.742 384.528L198.246 392.679C200.736 393.507 202.586 393.718 203.798 393.311C204.968 392.824 205.883 391.577 206.543 389.57L208.456 390.207C206.295 395.963 204.914 399.753 204.315 401.577C203.755 403.279 202.638 407.089 200.962 413.007L199.049 412.371C199.589 410.729 199.503 409.453 198.792 408.542C198.04 407.55 196.419 406.64 193.929 405.812L165.599 396.389C163.049 395.54 161.056 395.249 159.622 395.513C158.127 395.758 157.06 396.853 156.42 398.799C155.621 401.231 155.964 403.672 157.449 406.122C158.894 408.491 161.104 410.17 164.079 411.16L189.403 419.583C191.893 420.411 193.724 420.683 194.896 420.398C196.026 420.032 196.861 419.028 197.401 417.387L199.314 418.023C197.312 423.293 196.012 426.84 195.413 428.664C194.813 430.488 193.556 434.723 191.641 441.37L189.728 440.734C190.447 438.545 190.491 436.874 189.86 435.72C189.168 434.545 187.577 433.544 185.087 432.716L156.393 423.172C153.599 422.243 151.425 421.992 149.87 422.419C148.315 422.846 147.178 424.154 146.458 426.342L144.545 425.706C145.367 423.821 146.078 421.967 146.677 420.143C148.455 414.731 149.489 410.151 149.778 406.403L157.976 409.13C153.208 404.576 151.932 398.925 154.15 392.176C155.669 387.555 157.952 384.605 161 383.326C162.594 382.574 164.666 382.42 167.215 382.863C164.455 380.192 162.827 377.357 162.33 374.359C161.773 371.341 162.053 368.129 163.172 364.725C164.691 360.104 166.974 357.154 170.022 355.874C171.435 355.265 173.153 355.061 175.175 355.261C177.198 355.462 179.727 356.067 182.764 357.077L207.268 365.227Z" fill="black"/>
<path d="M255.125 289.273C257.298 290.744 259.057 291.394 260.404 291.224C261.732 290.964 263.02 289.904 264.265 288.042L265.934 289.172C262.163 294.348 259.708 297.787 258.569 299.489C257.573 300.978 255.472 304.348 252.267 309.598L250.598 308.467C251.559 307.031 251.82 305.778 251.381 304.708C250.978 303.584 249.663 302.269 247.438 300.762L222.716 284.021C220.491 282.514 218.617 281.747 217.094 281.721C215.554 281.606 214.161 282.479 212.916 284.341C211.599 286.309 211.263 288.594 211.91 291.195C212.591 293.744 214.036 295.959 216.242 297.84L217.673 298.808L239.056 313.288C241.228 314.76 242.952 315.463 244.227 315.399C245.485 315.246 246.701 314.292 247.875 312.536L249.545 313.667C245.916 318.629 243.568 321.909 242.5 323.504C241.503 324.994 239.403 328.363 236.198 333.613L234.529 332.483C235.49 331.047 235.751 329.794 235.312 328.723C234.855 327.564 233.541 326.249 231.368 324.777L206.647 308.037C204.421 306.53 202.583 305.71 201.131 305.577C199.627 305.409 198.305 306.175 197.166 307.878C195.743 310.005 195.416 312.45 196.185 315.213C196.938 317.887 198.612 320.103 201.209 321.861L223.307 336.825C225.479 338.297 227.168 339.053 228.371 339.096C229.558 339.049 230.631 338.307 231.592 336.871L233.262 338.001C229.918 342.539 227.712 345.605 226.644 347.201C225.576 348.797 223.227 352.539 219.595 358.427L217.925 357.296C219.207 355.381 219.699 353.783 219.402 352.5C219.053 351.181 217.792 349.786 215.619 348.314L190.58 331.358C188.142 329.708 186.118 328.878 184.507 328.869C182.896 328.86 181.449 329.813 180.168 331.728L178.499 330.598C179.797 329.003 180.98 327.408 182.047 325.812C185.215 321.078 187.442 316.944 188.729 313.41L195.883 318.254C192.521 312.577 192.815 306.786 196.765 300.882C199.47 296.839 202.461 294.613 205.738 294.204C207.474 293.911 209.509 294.323 211.842 295.439C209.906 292.119 209.102 288.946 209.431 285.923C209.707 282.864 210.842 279.845 212.835 276.866C215.54 272.823 218.531 270.598 221.808 270.189C223.331 269.984 225.038 270.251 226.93 270.991C228.822 271.731 231.093 272.999 233.743 274.793L255.125 289.273Z" fill="black"/>
<path d="M286.474 262.587C290.261 258.954 291.548 254.172 290.336 248.241L291.979 247.462C293.917 251.368 294.698 255.541 294.321 259.981C293.947 264.331 291.981 268.212 288.425 271.623C283.529 276.319 278.151 278.506 272.292 278.185C266.434 277.773 260.6 274.501 254.788 268.37C248.845 262.099 245.858 255.83 245.826 249.564C245.751 243.251 248.277 237.636 253.404 232.718C262.087 224.389 271.315 225.381 281.089 235.693L261.621 254.367C262.235 255.108 263.247 256.222 264.656 257.708C267.561 260.774 270.398 262.93 273.167 264.176C275.982 265.379 278.499 265.802 280.719 265.446C282.985 265.046 284.903 264.093 286.474 262.587ZM254.375 234.58C252.712 236.175 252.317 238.549 253.19 241.703C254.064 244.766 256.411 248.59 260.228 253.176L271.105 242.743C267.719 238.984 264.488 236.319 261.411 234.748C258.337 233.086 255.991 233.03 254.375 234.58Z" fill="black"/>
<path d="M306.043 191.036C308.404 189.386 310.679 188.851 312.867 189.429C315.056 190.008 316.841 191.298 318.223 193.299C319.568 195.248 320.101 197.257 319.819 199.328C319.554 201.309 318.504 202.941 316.668 204.224C314.884 205.471 313.159 206.013 311.491 205.851C309.787 205.636 308.408 204.765 307.353 203.238C305.608 200.71 305.344 197.85 306.561 194.657C306.314 194.751 305.981 194.945 305.562 195.238C305.037 195.604 304.654 195.95 304.412 196.276C302.637 197.985 301.768 200.388 301.807 203.484C301.898 206.544 302.707 209.18 304.234 211.391L318.691 232.325C320.364 234.747 322.104 236.029 323.913 236.171C325.774 236.275 327.99 235.429 330.56 233.633L331.706 235.292C330.972 235.805 330.35 236.2 329.842 236.478C324.382 240.059 320.76 242.473 318.977 243.72C317.56 244.71 314.389 247.043 309.462 250.721C309.079 251.067 308.572 251.46 307.943 251.9L306.797 250.241C308.686 248.921 309.724 247.61 309.913 246.307C310.066 244.951 309.396 243.193 307.905 241.034L290.721 216.151C289.048 213.728 287.463 212.221 285.965 211.628C284.466 211.036 282.773 211.399 280.885 212.719L279.739 211.06C281.527 210.045 283.207 208.987 284.781 207.888C289.45 204.625 293.025 201.58 295.506 198.752L300.579 206.099C300.012 203.138 300.2 200.313 301.143 197.624C302.049 194.882 303.683 192.686 306.043 191.036Z" fill="black"/>
<path d="M415.092 180.22C417.11 185.752 418.988 190.243 420.725 193.695C416.576 195.023 409.669 197.471 400.003 201.041C386.915 205.875 377.162 209.579 370.744 212.154L370.086 210.35C372.023 209.498 373.376 208.726 374.145 208.033C374.974 207.317 375.352 206.393 375.28 205.26C375.267 204.105 374.844 202.385 374.01 200.1L357.686 155.37C356.853 153.085 356.069 151.498 355.336 150.609C354.663 149.698 353.78 149.239 352.688 149.233C351.656 149.205 350.127 149.497 348.102 150.108L347.444 148.305C353.994 146.09 363.812 142.566 376.9 137.733C385.726 134.473 391.967 132.066 395.623 130.511C397.024 135.657 398.437 140.183 399.863 144.091C400.829 146.736 401.665 148.747 402.371 150.124L400.3 150.889C397.052 144.788 393.786 140.878 390.501 139.157C387.216 137.437 383.442 137.364 379.18 138.938L375.487 140.301C373.626 140.989 372.33 141.638 371.599 142.249C370.869 142.86 370.518 143.672 370.547 144.685C370.554 145.637 370.908 147.075 371.61 148.999L379.772 171.365L382.654 170.3C385.836 169.125 387.809 167.066 388.575 164.122C389.4 161.157 389.55 157.929 389.026 154.438L391.097 153.673C391.839 156.265 392.78 159.124 393.921 162.25L395.5 166.579C396.619 169.645 398.357 173.848 400.714 179.186L398.643 179.951C394.486 172.48 389.376 169.865 383.312 172.104L380.43 173.168L388.723 195.894C389.426 197.818 390.091 199.176 390.721 199.967C391.328 200.697 392.107 201.058 393.057 201.048C394.007 201.038 395.413 200.69 397.274 200.002L401.687 198.373C405.949 196.798 408.845 194.092 410.373 190.252C411.94 186.331 411.991 180.683 410.526 173.31L412.598 172.545C413.141 174.596 413.973 177.154 415.092 180.22Z" fill="black"/>
<path d="M474.199 173.573C474.662 176.481 475.441 178.527 476.537 179.711C477.696 180.886 479.382 181.295 481.593 180.939L481.91 182.93C479.921 183.056 477.947 183.277 475.989 183.592C470.492 184.478 465.95 185.664 462.363 187.149L461.004 178.617C459.033 184.963 454.415 188.722 447.149 189.893C442.41 190.657 438.77 189.979 436.229 187.861C435.027 186.823 434.022 185.396 433.215 183.582C432.461 181.694 431.832 179.169 431.329 176.009L427.509 152.024C427.046 149.116 426.235 147.075 425.076 145.901C423.98 144.716 422.326 144.302 420.115 144.658L419.798 142.667C421.787 142.541 423.76 142.32 425.719 142.005C431.216 141.119 435.758 139.933 439.345 138.447L445.595 177.697C446.018 180.351 446.714 182.281 447.684 183.486C448.717 184.681 450.339 185.1 452.55 184.744C455.078 184.337 457.06 182.948 458.497 180.577C459.987 178.133 460.485 175.362 459.992 172.265L456.037 147.426C455.574 144.519 454.763 142.478 453.604 141.303C452.508 140.118 450.854 139.704 448.643 140.061L448.326 138.07C450.378 137.933 452.352 137.713 454.247 137.407C459.744 136.521 464.286 135.335 467.873 133.85L474.199 173.573Z" fill="black"/>
<path d="M522.292 132.39C525.172 132.421 527.339 133.307 528.793 135.051C530.247 136.794 530.961 138.881 530.936 141.313C530.912 143.681 530.188 145.626 528.764 147.147C527.405 148.605 525.605 149.322 523.365 149.299C521.19 149.276 519.467 148.714 518.199 147.613C516.931 146.447 516.306 144.937 516.325 143.081C516.357 140.009 517.791 137.528 520.626 135.637C520.371 135.571 519.987 135.535 519.475 135.529C518.835 135.523 518.323 135.581 517.938 135.705C515.502 136.064 513.407 137.514 511.652 140.056C509.962 142.598 509.103 145.213 509.075 147.901L508.812 173.34C508.782 176.284 509.465 178.339 510.861 179.506C512.321 180.673 514.619 181.273 517.754 181.306L517.734 183.322C516.838 183.312 516.102 183.273 515.527 183.203C509.001 182.942 504.65 182.801 502.474 182.778C500.747 182.76 496.81 182.815 490.664 182.943C490.152 183.001 489.511 183.027 488.743 183.019L488.764 181.003C491.068 181.027 492.673 180.563 493.579 179.613C494.485 178.598 494.952 176.779 494.979 174.155L495.292 143.917C495.322 140.973 494.896 138.824 494.014 137.471C493.132 136.118 491.539 135.429 489.235 135.405L489.256 133.389C491.302 133.603 493.285 133.719 495.205 133.739C500.9 133.799 505.577 133.4 509.234 132.542L509.142 141.47C510.386 138.73 512.169 136.541 514.49 134.901C516.811 133.197 519.412 132.36 522.292 132.39Z" fill="black"/>
<path d="M568.903 137.802C576.151 139.082 581.46 142.164 584.831 147.048C588.213 151.869 589.123 158.756 587.562 167.709C586 176.662 582.814 182.826 578.002 186.201C573.191 189.576 567.161 190.624 559.913 189.344C552.728 188.076 547.413 185.026 543.968 180.193C540.586 175.372 539.676 168.485 541.238 159.532C542.799 150.579 545.986 144.415 550.797 141.04C555.683 137.613 561.718 136.534 568.903 137.802ZM568.573 139.694C565.863 139.215 563.342 140.818 561.01 144.5C558.753 148.131 556.921 153.982 555.513 162.052C554.105 170.122 553.849 176.251 554.742 180.438C555.699 184.636 557.533 186.974 560.243 187.453C563.016 187.942 565.526 186.403 567.772 182.835C570.03 179.204 571.868 173.322 573.286 165.189C574.705 157.056 574.936 150.89 573.979 146.692C573.085 142.505 571.283 140.172 568.573 139.694Z" fill="black"/>
<path d="M641.37 158.38C644.487 159.547 646.933 161.42 648.709 163.998C650.544 166.599 651.53 169.838 651.665 173.715C651.8 177.593 650.968 181.963 649.169 186.825C645.994 195.408 641.663 201.304 636.177 204.512C630.773 207.682 624.865 208.067 618.451 205.666C616.653 204.993 615.034 204.113 613.593 203.027C612.213 201.963 611.131 200.738 610.347 199.351L607.016 208.355C606.039 210.996 606.021 213.073 606.962 214.588C607.903 216.102 609.752 217.375 612.509 218.407L611.81 220.298L609.416 219.299C602.829 216.628 598.637 214.956 596.839 214.283C595.041 213.609 591.221 212.316 585.378 210.401L586.077 208.511C588.055 209.251 589.6 209.317 590.713 208.709C591.863 208.182 592.871 206.749 593.737 204.408L610.391 159.39C611.413 156.629 611.707 154.45 611.275 152.853C610.902 151.278 609.667 150.098 607.569 149.312L608.268 147.422C610.12 148.32 611.944 149.106 613.742 149.779C618.957 151.731 623.488 152.949 627.335 153.433L624.27 161.716C626.551 159.426 629.156 158.01 632.086 157.467C635.039 156.864 638.134 157.168 641.37 158.38ZM615.844 201.922C619.68 203.358 623.137 202.5 626.214 199.347C629.314 196.133 632.218 190.865 634.927 183.542C637.636 176.22 638.879 170.739 638.655 167.102C638.491 163.487 637.151 161.208 634.633 160.266C632.596 159.503 630.512 159.509 628.383 160.283C626.314 161.08 624.554 162.608 623.105 164.867L611.08 197.37C611.919 199.53 613.507 201.047 615.844 201.922Z" fill="black"/>
<path d="M674.505 224.73C679.026 227.394 683.954 227.327 689.287 224.528L690.486 225.903C687.29 228.848 683.517 230.747 679.168 231.601C674.907 232.433 670.654 231.597 666.408 229.095C660.564 225.65 656.984 221.051 655.669 215.298C654.44 209.523 655.952 202.985 660.204 195.685C664.552 188.219 669.717 183.611 675.698 181.862C681.711 180.057 687.777 180.959 693.897 184.566C704.263 190.676 705.87 199.869 698.72 212.147L675.48 198.449C674.942 199.246 674.158 200.529 673.127 202.299C671.001 205.949 669.726 209.283 669.301 212.302C668.931 215.353 669.224 217.902 670.179 219.951C671.188 222.032 672.631 223.625 674.505 224.73ZM692.387 186.016C690.402 184.846 688.023 185.115 685.25 186.824C682.565 188.51 679.559 191.827 676.233 196.775L689.217 204.428C691.872 200.124 693.525 196.27 694.175 192.864C694.912 189.436 694.316 187.153 692.387 186.016Z" fill="black"/>
<path d="M699.822 251.112C696.676 248.49 694.987 245.708 694.756 242.767C694.574 239.866 695.582 237.082 697.779 234.414C699.61 232.191 701.68 230.834 703.991 230.343C706.391 229.845 708.728 229.876 711.002 230.438C713.324 231.04 716.13 231.962 719.419 233.203C722.896 234.518 725.554 235.317 727.394 235.6C729.323 235.875 730.837 235.345 731.935 234.011L736.695 228.231C738.404 226.156 739.234 224.14 739.186 222.185C739.229 220.221 738.242 218.398 736.226 216.719C733.866 214.752 731.583 213.849 729.378 214.011C730.348 215.652 730.795 217.274 730.718 218.877C730.691 220.52 730.129 222.009 729.03 223.343C727.647 225.023 725.983 225.886 724.039 225.932C722.094 225.977 720.311 225.324 718.688 223.972C716.968 222.538 716.088 220.888 716.048 219.023C716.009 217.157 716.661 215.41 718.003 213.779C719.143 212.396 720.418 211.501 721.83 211.095C723.332 210.681 725.117 210.627 727.186 210.934C729.164 211.25 731.295 211.985 733.579 213.138C735.911 214.332 738.233 215.892 740.544 217.818C742.953 219.825 744.839 221.814 746.202 223.783C747.566 225.752 748.349 227.821 748.553 229.99C748.739 231.978 748.354 233.906 747.396 235.774C746.487 237.683 744.914 239.996 742.677 242.713L726.078 262.871C725.102 264.057 724.509 264.978 724.299 265.636C724.138 266.335 724.377 266.951 725.016 267.484C725.753 268.098 726.984 268.416 728.708 268.436L728.408 270.311C724.691 270.295 721.234 268.956 718.038 266.292C715.334 264.039 713.889 261.918 713.702 259.93C713.515 257.941 714.15 256.013 715.606 254.144C709.853 256.097 704.591 255.086 699.822 251.112ZM709.406 251.101C711.324 252.699 713.829 253.08 716.923 252.242L729.433 237.05C728.029 237.546 725.881 237.588 722.987 237.176C720.052 236.814 717.585 236.84 715.584 237.256C713.584 237.671 711.628 239.04 709.716 241.362C708.048 243.388 707.225 245.243 707.247 246.928C707.31 248.563 708.03 249.954 709.406 251.101Z" fill="black"/>
<path d="M791.931 270.208C795.063 273.931 796.378 277.433 795.879 280.716C795.653 282.337 794.954 283.941 793.78 285.529C792.606 287.116 790.777 288.968 788.292 291.084L768.629 307.824C766.631 309.525 765.53 311.05 765.327 312.4C765.214 313.757 765.879 315.292 767.321 317.007L765.786 318.313C761.861 313.25 759.239 309.935 757.921 308.367C756.685 306.898 753.909 303.798 749.594 299.066L751.129 297.759C752.365 299.228 753.596 299.946 754.821 299.911C756.095 299.835 757.731 298.947 759.729 297.246L782.463 277.891C784.461 276.19 785.683 274.562 786.13 273.005C786.617 271.497 786.14 269.886 784.698 268.172C783.009 266.164 780.739 265.155 777.887 265.145C775.084 265.094 772.489 266.085 770.101 268.118L749.78 285.418C747.782 287.119 746.64 288.595 746.355 289.847C746.118 291.057 746.618 292.396 747.854 293.866L746.319 295.173C742.723 290.501 740.267 287.381 738.948 285.814C737.712 284.345 734.772 281.049 730.127 275.925L731.663 274.618C733.146 276.381 734.541 277.295 735.849 277.358C737.205 277.38 738.883 276.54 740.881 274.839L763.906 255.236C766.148 253.328 767.492 251.595 767.939 250.038C768.385 248.481 767.867 246.821 766.384 245.058L767.919 243.751C769.091 245.443 770.295 247.024 771.531 248.493C775.198 252.852 778.546 256.136 781.577 258.347L774.998 263.948C781.384 262.294 787.029 264.38 791.931 270.208Z" fill="black"/>
<path d="M868.698 371.516C862.971 373.6 857.918 375.626 853.54 377.594C850.797 378.827 848.618 379.912 847.003 380.849L846.106 378.831C852.663 374.199 856.854 369.999 858.682 366.231C860.535 362.52 860.526 358.56 858.656 354.348L857.759 352.331L807.763 374.807C805.312 375.909 803.635 376.944 802.734 377.91C801.859 378.935 801.49 380.154 801.627 381.566C801.848 383.01 802.54 385.12 803.703 387.895L801.952 388.682C798.853 381.234 796.472 375.638 794.81 371.895C793.173 368.21 790.708 362.898 787.415 355.958L789.166 355.17C790.446 357.893 791.533 359.79 792.429 360.861C793.409 361.964 794.558 362.5 795.875 362.469C797.218 362.497 799.115 361.96 801.567 360.858L851.563 338.381L850.705 336.451C849.458 333.643 847.78 331.521 845.671 330.083C843.587 328.704 840.804 327.956 837.32 327.838C833.895 327.694 829.51 328.227 824.165 329.437L823.268 327.419C825.039 326.834 827.296 325.924 830.04 324.691C834.417 322.723 839.288 320.287 844.652 317.385C846.841 322.786 850.768 331.862 856.432 344.612C862.096 357.363 866.184 366.331 868.698 371.516Z" fill="black"/>
<path d="M863.738 419.029C865.387 426.202 864.62 432.294 861.438 437.305C858.318 442.302 852.333 445.83 843.481 447.89C834.629 449.949 827.712 449.423 822.728 446.311C817.744 443.2 814.428 438.058 812.779 430.885C811.144 423.774 811.88 417.689 814.985 412.63C818.105 407.633 824.091 404.105 832.942 402.046C841.794 399.986 848.711 400.512 853.695 403.624C858.756 406.783 862.103 411.918 863.738 419.029ZM861.868 419.464C861.251 416.782 858.793 415.087 854.493 414.379C850.27 413.719 844.169 414.317 836.19 416.173C828.211 418.029 822.468 420.187 818.962 422.645C815.47 425.166 814.032 427.768 814.649 430.45C815.28 433.194 817.676 434.904 821.837 435.578C826.06 436.238 832.192 435.633 840.233 433.762C848.275 431.891 854.041 429.696 857.533 427.175C861.04 424.716 862.484 422.146 861.868 419.464Z" fill="black"/>
<path d="M833.31 509.224C830.369 509.352 828.246 509.893 826.942 510.846C825.64 511.864 825.038 513.491 825.134 515.729L823.12 515.817C823.226 513.826 823.237 511.84 823.152 509.858C822.913 504.295 822.265 499.647 821.208 495.913L829.84 495.538C823.767 492.855 820.573 487.837 820.257 480.484C820.051 475.688 821.148 472.149 823.548 469.867C824.719 468.791 826.253 467.956 828.149 467.361C830.112 466.827 832.692 466.491 835.889 466.352L860.154 465.297C863.095 465.169 865.216 464.596 866.518 463.579C867.822 462.625 868.426 461.03 868.33 458.792L870.344 458.704C870.238 460.695 870.227 462.681 870.312 464.663C870.551 470.226 871.199 474.874 872.256 478.608L832.55 480.334C829.864 480.451 827.867 480.922 826.557 481.748C825.25 482.637 824.644 484.201 824.74 486.439C824.85 488.996 825.999 491.125 828.186 492.823C830.439 494.583 833.133 495.395 836.266 495.259L861.394 494.166C864.335 494.038 866.456 493.466 867.758 492.448C869.062 491.495 869.666 489.899 869.57 487.661L871.584 487.574C871.48 489.628 871.47 491.614 871.552 493.533C871.791 499.095 872.439 503.744 873.496 507.477L833.31 509.224Z" fill="black"/>
<path d="M868.696 562.058C868.336 564.915 867.207 566.965 865.309 568.207C863.411 569.449 861.255 569.916 858.843 569.608C856.494 569.309 854.645 568.363 853.298 566.772C852.006 565.253 851.499 563.382 851.779 561.159C852.051 559 852.807 557.355 854.046 556.222C855.349 555.098 856.921 554.653 858.762 554.888C861.809 555.276 864.109 556.989 865.662 560.026C865.757 559.78 865.837 559.403 865.901 558.895C865.981 558.26 865.982 557.744 865.903 557.347C865.826 554.885 864.625 552.635 862.302 550.597C859.971 548.622 857.472 547.465 854.805 547.125L829.569 543.908C826.649 543.536 824.53 543.975 823.211 545.226C821.884 546.541 821.025 548.754 820.633 551.866L818.633 551.611C818.745 550.722 818.869 549.995 819.004 549.432C820.011 542.98 820.65 538.674 820.922 536.515C821.138 534.8 821.534 530.883 822.112 524.763C822.112 524.247 822.161 523.608 822.257 522.846L824.256 523.101C823.968 525.387 824.245 527.035 825.085 528.045C825.989 529.064 827.742 529.739 830.345 530.071L860.342 533.895C863.262 534.267 865.445 534.094 866.89 533.375C868.336 532.656 869.202 531.154 869.49 528.868L871.49 529.123C871.044 531.13 870.7 533.087 870.46 534.992C869.749 540.643 869.609 545.335 870.042 549.068L861.186 547.939C863.763 549.493 865.734 551.519 867.096 554.015C868.523 556.519 869.056 559.2 868.696 562.058Z" fill="black"/>
<path d="M848.441 636.325C846.684 640.929 844.277 644.184 841.22 646.091C838.223 648.021 834.933 648.294 831.351 646.911C828.904 645.965 826.909 644.371 825.367 642.129C823.802 639.947 822.579 637.588 821.697 635.052C820.815 632.516 819.819 629.113 818.709 624.842C817.367 619.384 816.131 615.442 815.002 613.016L807.608 632.389C806.992 634.004 806.655 635.246 806.598 636.115C806.517 637.045 806.688 637.763 807.111 638.269C807.535 638.776 808.279 639.338 809.345 639.955L808.626 641.839C801.581 639.118 796.491 637.289 793.355 636.352C794.155 635.152 796.005 630.755 798.903 623.161L808.863 597.061L810.564 597.718C811.104 598.819 811.954 600.897 813.117 603.953C814.958 608.643 816.669 612.597 818.249 615.814C819.867 619.115 821.968 622.224 824.553 625.144C827.175 628.146 830.247 630.327 833.77 631.688C836.934 632.91 839.506 633.08 841.487 632.198C843.504 631.399 845.038 629.625 846.087 626.874C847.046 624.363 847.304 621.89 846.863 619.456C846.459 617.104 845.431 614.683 843.778 612.192L845.256 611.014C851.03 618.321 852.092 626.758 848.441 636.325Z" fill="black"/>
<path d="M818.823 696.509C816.196 700.828 812.952 704.13 809.091 706.412C805.23 708.695 801.1 709.76 796.699 709.606C792.265 709.506 787.922 708.148 783.671 705.531C779.311 702.847 775.986 699.447 773.695 695.331C771.371 691.27 770.282 686.842 770.427 682.047C770.594 677.339 772.057 672.717 774.818 668.178C777.412 663.913 780.64 660.639 784.501 658.357C788.361 656.074 792.509 654.982 796.943 655.081C801.377 655.181 805.747 656.556 810.052 659.206C814.358 661.857 817.673 665.213 819.997 669.274C822.287 673.389 823.349 677.801 823.183 682.508C823.07 687.249 821.617 691.916 818.823 696.509ZM817.801 694.865C818.998 692.896 819.218 690.627 818.46 688.055C817.701 685.484 815.981 682.772 813.297 679.917C810.635 677.151 807.124 674.426 802.764 671.742C795.843 667.481 790.094 665.294 785.517 665.183C780.962 665.159 777.736 666.706 775.841 669.822C774.643 671.791 774.44 674.033 775.232 676.55C776.044 679.154 777.765 681.867 780.394 684.688C783.077 687.542 786.599 690.311 790.959 692.996C797.881 697.257 803.619 699.399 808.174 699.422C812.696 699.501 815.905 697.981 817.801 694.865Z" fill="black"/>
<path d="M778.398 750.88C775.117 754.556 771.709 756.739 768.177 757.429C764.692 758.161 761.524 757.241 758.675 754.666C756.728 752.907 755.435 750.704 754.796 748.056C754.114 745.457 753.814 742.814 753.896 740.127C753.977 737.441 754.262 733.903 754.749 729.513C755.443 723.931 755.696 719.803 755.508 717.132L741.698 732.6C740.547 733.89 739.79 734.93 739.426 735.722C739.019 736.562 738.923 737.295 739.137 737.92C739.351 738.545 739.846 739.336 740.62 740.295L739.278 741.799C733.674 736.736 729.576 733.206 726.984 731.209C728.159 730.373 731.453 726.923 736.866 720.86L755.47 700.02L756.823 701.243C756.934 702.464 756.987 704.711 756.982 707.984C757.027 713.027 757.213 717.336 757.54 720.909C757.873 724.573 758.724 728.232 760.095 731.885C761.471 735.63 763.56 738.768 766.362 741.299C768.879 743.573 771.219 744.652 773.381 744.536C775.549 744.51 777.613 743.399 779.573 741.203C781.363 739.198 782.487 736.979 782.944 734.545C783.405 732.202 783.309 729.571 782.655 726.651L784.455 726.078C787.237 734.974 785.218 743.241 778.398 750.88Z" fill="black"/>
<path d="M707.383 760.888C705.63 758.767 704.014 757.615 702.535 757.434C701.098 757.301 699.397 758.056 697.433 759.698L696.149 758.144C701.614 753.907 705.083 751.173 706.556 749.941C708.176 748.586 711.65 745.556 716.977 740.851L718.978 739.052L720.262 740.606C717.954 742.536 716.603 744.417 716.208 746.25C715.763 748.123 716.479 750.194 718.354 752.464L733.275 770.52C735.232 772.888 736.88 774.43 738.219 775.146C739.549 775.952 740.848 776.118 742.115 775.642C743.423 775.215 745.084 774.16 747.097 772.477L748.442 774.105C744.252 777.776 741.007 781.032 738.706 783.874C736.446 786.765 734.791 789.735 733.74 792.783L707.383 760.888Z" fill="black"/>
</svg>
